<svg viewBox="0 0 24 24" xmlns="http://www.w3.org/2000/svg"><path d="m0 0h24v24h-24z" fill="#fff" opacity="0"/><g fill="#231f20"><path d="m5 2a3 3 0 1 0 3 3 3 3 0 0 0 -3-3z"/><path d="m12 2a3 3 0 1 0 3 3 3 3 0 0 0 -3-3z"/><path d="m19 8a3 3 0 1 0 -3-3 3 3 0 0 0 3 3z"/><path d="m5 9a3 3 0 1 0 3 3 3 3 0 0 0 -3-3z"/><path d="m12 9a3 3 0 1 0 3 3 3 3 0 0 0 -3-3z"/><path d="m19 9a3 3 0 1 0 3 3 3 3 0 0 0 -3-3z"/><path d="m5 16a3 3 0 1 0 3 3 3 3 0 0 0 -3-3z"/><path d="m12 16a3 3 0 1 0 3 3 3 3 0 0 0 -3-3z"/><path d="m19 16a3 3 0 1 0 3 3 3 3 0 0 0 -3-3z"/></g></svg>